<svg id="visual" viewBox="0 0 960 720" width="960" height="720" xmlns="http://www.w3.org/2000/svg" xmlns:xlink="http://www.w3.org/1999/xlink" version="1.1"><path d="M0 51L87 51L87 123L175 123L175 51L262 51L262 66L349 66L349 44L436 44L436 44L524 44L524 66L611 66L611 116L698 116L698 123L785 123L785 95L873 95L873 116L960 116L960 44L960 0L960 0L873 0L873 0L785 0L785 0L698 0L698 0L611 0L611 0L524 0L524 0L436 0L436 0L349 0L349 0L262 0L262 0L175 0L175 0L87 0L87 0L0 0Z" fill="#fa7268"></path><path d="M0 203L87 203L87 181L175 181L175 109L262 109L262 123L349 123L349 116L436 116L436 167L524 167L524 203L611 203L611 246L698 246L698 217L785 217L785 224L873 224L873 253L960 253L960 181L960 42L960 114L873 114L873 93L785 93L785 121L698 121L698 114L611 114L611 64L524 64L524 42L436 42L436 42L349 42L349 64L262 64L262 49L175 49L175 121L87 121L87 49L0 49Z" fill="#ea5e66"></path><path d="M0 339L87 339L87 303L175 303L175 282L262 282L262 267L349 267L349 318L436 318L436 325L524 325L524 383L611 383L611 411L698 411L698 339L785 339L785 332L873 332L873 397L960 397L960 303L960 179L960 251L873 251L873 222L785 222L785 215L698 215L698 244L611 244L611 201L524 201L524 165L436 165L436 114L349 114L349 121L262 121L262 107L175 107L175 179L87 179L87 201L0 201Z" fill="#d84a64"></path><path d="M0 591L87 591L87 476L175 476L175 469L262 469L262 447L349 447L349 483L436 483L436 476L524 476L524 548L611 548L611 599L698 599L698 433L785 433L785 527L873 527L873 548L960 548L960 512L960 301L960 395L873 395L873 330L785 330L785 337L698 337L698 409L611 409L611 381L524 381L524 323L436 323L436 316L349 316L349 265L262 265L262 280L175 280L175 301L87 301L87 337L0 337Z" fill="#c53762"></path><path d="M0 721L87 721L87 721L175 721L175 721L262 721L262 721L349 721L349 721L436 721L436 721L524 721L524 721L611 721L611 721L698 721L698 721L785 721L785 721L873 721L873 721L960 721L960 721L960 510L960 546L873 546L873 525L785 525L785 431L698 431L698 597L611 597L611 546L524 546L524 474L436 474L436 481L349 481L349 445L262 445L262 467L175 467L175 474L87 474L87 589L0 589Z" fill="#b0235f"></path></svg>