<svg id="Layer_1" data-name="Layer 1" xmlns="http://www.w3.org/2000/svg" viewBox="0 0 512 512"><title>rewind</title><path d="M509.59,99.65s8.18-1.6-5.57-1.5l-11-.64-8.08-1.58-8,.45s-2.31,4.21-6.88,50.76a201.82,201.82,0,0,0-4.59,43.76s2.37,182.23,7.22,195.91c0,0-6.92-114.25-4.73-121.45,0,0,5.67,109.27,10,117.65,0,0-6.48-106-.87-115.41,0,0,6,97.55,11.53,109.37,0,0-2.22-18.73-1.55-23.73l1.68,8.72-.24-14.05-1.28-8.1s3.82,22,5.77,23.51c0,0-2.32,10-1.45-29.66C491.58,333.67,478,239.8,509.59,99.65Z"/><path d="M456.15,424.64c.07.07-5,7.46,4.31-4.33l7.88-9,6.75-5.67,5.34-7c2.1,1.38-6.31-11.6-38.17-35.71-.69-.64-8.6-12.49-30-29.2-.94-1.14-34.84-24.76-74.29-49.53-44.28-24.25-76.92-36.79-85.62-42.94,2.75.87,21.16,15.13,46.27,23.78,26.24,10.23,51.94,27,54.23,29.76.13.54-23-14.74-48.44-24.62-25.3-8.6-45.81-19.89-51.3-21.32-2.2,3.87,87.53,39.3,93.32,53.91.42-3.94-83.72-37.25-94.23-39.91-.14.35,15.7,7.88,19.37,10.87l-7.72-2.66a110.78,110.78,0,0,0,11.49,6.5l7.24,2.09c0,.34-19.69-5.57-21.92-4.95.18-.76-7.43-5.87,25.34,12.17C285.94,281.52,371.19,319.68,456.15,424.64Z"/><path d="M491.48,119.31s5.65,7.29-1.57-6.38l-5.17-11.33-2.89-8.85L477.27,85c-.66.2-3.21-.62-44.65,18-1.3.3-16.93,5.12-37.26,14.69.08.35-10.76,4.51-27.32,17.29-13.25,9.83-30.48,23.65-48.89,37-37.21,25-77.51,56.57-80.25,61.92-2.12-.29,89.88-70.49,95-71.3,1.7-.3-86.67,64.81-89.46,74.63-1.51-.57,83.1-65.35,92.42-64.16.72.32-76.39,58.1-82.26,71.48,0,0,13.73-12.86,18.12-15l-6.08,6.56,11.06-8.11,5.86-5.86c-.08,0-15.62,16.22-15.69,18.92,0,0-9.25,3.32,22.67-17.93C293.31,226.35,355.3,153.09,491.48,119.31Z"/><path d="M270.74,99.65s8.18-1.6-5.57-1.5l-11-.64-8.07-1.58-8,.45s-2.31,4.21-6.88,50.76a202.18,202.18,0,0,0-4.59,43.76s2.36,182.23,7.2,195.91c0,0-6.9-114.25-4.72-121.45,0,0,5.67,109.27,10,117.65,0,0-6.48-106-.88-115.41,0,0,6,97.55,11.53,109.37,0,0-2.23-18.73-1.54-23.73l1.67,8.72-.23-14.05-1.29-8.1s3.83,22,5.78,23.51c0,0-2.33,10-1.46-29.66C252.72,333.67,239.21,239.8,270.74,99.65Z"/><path d="M217.31,424.64c.06.07-5,7.47,4.29-4.33l7.88-9,6.76-5.67,5.33-7c2.1,1.38-6.31-11.6-38.16-35.71-.71-.66-8.62-12.47-30.05-29.2-.93-1.14-34.83-24.77-74.3-49.52-44.26-24.25-76.92-36.81-85.62-43,2.74.87,21.17,15.13,46.28,23.8,26.26,10.22,51.93,27,54.23,29.74.13.54-23-14.73-48.42-24.62-25.31-8.6-45.83-19.89-51.31-21.32-2.21,3.87,87.52,39.3,93.32,53.91.42-3.92-83.72-37.25-94.23-39.91-.14.35,15.69,7.88,19.37,10.87L25,271.07c3.8,2.26,7.51,4.75,11.49,6.5l7.23,2.09c0,.34-19.68-5.57-21.91-4.95.17-.76-7.44-5.87,25.33,12.17C47.08,281.54,132.34,319.68,217.31,424.64Z"/><path d="M252.62,119.31s5.66,7.29-1.57-6.38l-5.16-11.33L243,92.75,238.4,85c-.65.2-3.21-.62-44.64,18-1.29.3-16.93,5.12-37.27,14.69.1.35-10.76,4.51-27.32,17.29-13.25,9.83-30.47,23.65-48.89,37C43.08,197,2.77,228.59,0,233.93c-2.11-.29,89.89-70.49,95-71.28,1.7-.32-86.68,64.82-89.47,74.61C4.08,236.69,88.68,171.9,98,173.1c.72.32-76.39,58.1-82.27,71.48,0,0,13.73-12.84,18.11-15l-6.06,6.56,11-8.11,5.85-5.86c-.07,0-15.62,16.22-15.68,18.92,0,0-9.25,3.32,22.66-17.93C54.46,226.35,116.43,153.09,252.62,119.31Z"/></svg>